<?xml version="1.0" encoding="UTF-8"?>
<svg xmlns="http://www.w3.org/2000/svg" xmlns:xlink="http://www.w3.org/1999/xlink" width="536pt" height="503pt" viewBox="0 0 536 503" version="1.1">
<g id="surface1">
<path style=" stroke:none;fill-rule:evenodd;fill:rgb(1.567078%,0.784302%,1.177979%);fill-opacity:1;" d="M 211.707031 470.796875 C 249.3125 515.195313 291.183594 510.96875 323.640625 471.164063 L 532.597656 81.082031 C 543.640625 48.800781 520.746094 6.171875 478.128906 0.785156 L 52.335938 1.363281 C 4.222656 4.808594 -5.914063 52.644531 3.90625 92.769531 L 211.707031 470.796875 "/>
<path style=" stroke:none;fill-rule:evenodd;fill:rgb(1.960754%,0.392151%,20.384216%);fill-opacity:1;" d="M 221.078125 449.761719 C 253.734375 492.984375 285.742188 488.769531 317.273438 450.097656 L 512.589844 77.492188 C 523.183594 48.679688 515.800781 29.324219 476.414063 21.957031 L 68.382813 19.011719 C 17.324219 17.089844 11.191406 75.242188 25.28125 85.128906 L 221.078125 449.761719 "/>
<path style="fill:none;stroke-width:134.608;stroke-linecap:butt;stroke-linejoin:miter;stroke:rgb(100%,100%,100%);stroke-opacity:1;stroke-miterlimit:22.9256;" d="M 2210.78125 532.382813 C 2537.34375 100.15625 2857.421875 142.304688 3172.734375 529.023438 L 5125.898438 4255.078125 C 5231.835938 4543.203125 5158.007813 4736.757813 4764.140625 4810.429688 L 683.828125 4839.882813 C 173.242188 4859.101563 111.914063 4277.578125 252.8125 4178.710938 Z M 2210.78125 532.382813 " transform="matrix(0.1,0,0,-0.1,0,503)"/>
<path style=" stroke:none;fill-rule:evenodd;fill:rgb(100%,100%,100%);fill-opacity:1;" d="M 227.550781 167.746094 L 306.300781 167.746094 L 306.300781 230.9375 L 422.480469 131.570313 L 485.335938 129.488281 L 476.984375 145.417969 L 375.9375 232.527344 L 431.320313 232.527344 L 390.75 309.929688 L 318.300781 309.929688 L 368.324219 352.714844 L 345.726563 395.820313 L 306.300781 361.828125 L 306.300781 462.121094 C 280.414063 487.082031 254.195313 487.984375 227.550781 457.714844 L 227.550781 360.445313 L 190.34375 392.523438 L 167.378906 349.757813 L 213.945313 309.929688 L 145.992188 309.929688 L 104.429688 232.527344 L 156.308594 232.527344 L 59.714844 149.257813 L 49.140625 129.5625 L 109.769531 131.570313 L 227.550781 232.3125 L 227.550781 167.746094 "/>
<path style=" stroke:none;fill-rule:evenodd;fill:rgb(70.117188%,0.392151%,0%);fill-opacity:1;" d="M 240.175781 167.746094 L 292.171875 167.746094 L 292.171875 246.832031 L 423.824219 246.832031 L 397.804688 296.46875 L 292.171875 296.46875 L 292.171875 473.296875 C 275 483.855469 257.675781 483.359375 240.175781 469.773438 L 240.175781 296.46875 L 138.765625 296.46875 L 118.1875 258.144531 L 118.1875 246.832031 L 240.175781 246.832031 L 240.175781 167.746094 "/>
<path style=" stroke:none;fill-rule:evenodd;fill:rgb(70.117188%,0.392151%,0%);fill-opacity:1;" d="M 183.640625 380.042969 L 229.238281 340.773438 L 227.136719 317.289063 L 172.855469 364.617188 L 183.640625 380.042969 "/>
<path style=" stroke:none;fill-rule:evenodd;fill:rgb(70.117188%,0.392151%,0%);fill-opacity:1;" d="M 350.066406 385.089844 L 304.472656 345.820313 L 306.574219 322.339844 L 360.851563 369.664063 L 350.066406 385.089844 "/>
<path style=" stroke:none;fill-rule:evenodd;fill:rgb(70.117188%,0.392151%,0%);fill-opacity:1;" d="M 177.453125 234.464844 L 60.34375 132.515625 L 79.453125 130.566406 L 202.542969 233.757813 L 177.453125 234.464844 "/>
<path style=" stroke:none;fill-rule:evenodd;fill:rgb(70.117188%,0.392151%,0%);fill-opacity:1;" d="M 346.390625 234.464844 L 463.496094 132.515625 L 444.390625 130.566406 L 321.300781 233.757813 L 346.390625 234.464844 "/>
<path style=" stroke:none;fill-rule:evenodd;fill:rgb(1.567078%,0.784302%,1.177979%);fill-opacity:1;" d="M 47.734375 22.207031 L 483.890625 22.207031 C 509.683594 31.121094 525.46875 45.90625 512.589844 77.492188 L 483.890625 132.246094 L 396.875 132.246094 C 314.472656 178.570313 229.453125 182.378906 141.117188 132.246094 L 47.734375 132.246094 L 25.28125 85.128906 C 16.113281 53.523438 24.988281 33.4375 47.734375 22.207031 "/>
<path style="fill:none;stroke-width:100.954;stroke-linecap:butt;stroke-linejoin:miter;stroke:rgb(100%,100%,100%);stroke-opacity:1;stroke-miterlimit:22.9256;" d="M 477.34375 4807.929688 L 4838.90625 4807.929688 C 5096.835938 4718.789063 5254.6875 4570.9375 5125.898438 4255.078125 L 4838.90625 3707.539063 L 3968.75 3707.539063 C 3144.726563 3244.296875 2294.53125 3206.210938 1411.171875 3707.539063 L 477.34375 3707.539063 L 252.8125 4178.710938 C 161.132813 4494.765625 249.882813 4695.625 477.34375 4807.929688 Z M 477.34375 4807.929688 " transform="matrix(0.1,0,0,-0.1,0,503)"/>
<path style=" stroke:none;fill-rule:nonzero;fill:rgb(100%,100%,100%);fill-opacity:1;" d="M 349.289063 52.492188 C 349.289063 52.492188 379.578125 52.09375 382.371094 51.828125 C 382.371094 51.828125 399.714844 54.089844 399.714844 71.695313 C 399.714844 89.300781 371.097656 94.300781 371.097656 94.300781 L 368.570313 94.699219 L 368.570313 108.582031 C 368.570313 108.582031 368.171875 112.785156 365.429688 112.785156 C 362.691406 112.785156 349.421875 112.785156 349.421875 112.785156 C 349.421875 112.785156 351.894531 109.59375 351.894531 103.714844 C 351.894531 97.839844 351.894531 59.753906 351.894531 59.753906 C 351.894531 59.753906 351.285156 54.222656 349.820313 53.15625 L 349.289063 52.492188 "/>
<path style=" stroke:none;fill-rule:nonzero;fill:rgb(13.699341%,12.199402%,12.5%);fill-opacity:1;" d="M 368.96875 63.023438 C 368.96875 63.023438 383.890625 59.699219 385.03125 70.632813 C 386.175781 81.5625 368.835938 84.699219 368.835938 84.699219 L 368.96875 63.023438 "/>
<path style=" stroke:none;fill-rule:nonzero;fill:rgb(100%,100%,100%);fill-opacity:1;" d="M 268.492188 141.003906 C 358.785156 138.898438 406.179688 91.148438 406.179688 91.148438 C 406.179688 91.148438 406.179688 59.226563 406.179688 57.890625 C 406.179688 56.558594 404.132813 52.398438 404.132813 52.398438 L 423.253906 52.398438 L 423.253906 78.945313 C 433.347656 71.851563 447.039063 69.027344 447.039063 69.027344 C 447.039063 69.027344 446.953125 63.117188 446.953125 59.847656 C 446.953125 56.582031 444.753906 52.3125 444.753906 52.3125 L 463.671875 52.3125 C 463.671875 52.3125 463.671875 99.550781 463.605469 104.777344 C 463.539063 110.003906 465.894531 113.089844 465.894531 113.089844 C 465.894531 113.089844 453.421875 113.269531 450.511719 113.089844 C 447.597656 112.914063 446.953125 108.3125 446.953125 108.3125 L 446.953125 80.367188 C 440.214844 80.722656 423.164063 93.285156 423.164063 93.285156 C 423.164063 93.285156 423.253906 101.953125 423.164063 105.84375 C 423.078125 109.734375 425.1875 113.179688 425.1875 113.179688 C 425.1875 113.179688 412.894531 113.535156 409.269531 112.824219 C 405.648438 112.113281 406.535156 106.109375 406.535156 106.109375 L 405.113281 107.0625 C 338.597656 153.390625 265.644531 150.414063 265.644531 150.414063 C 174.605469 148.3125 134.074219 94.273438 134.074219 94.273438 L 131.429688 94.460938 C 131.429688 94.460938 131.242188 98.796875 131.429688 103.5 C 131.617188 108.207031 133.882813 112.925781 133.882813 112.925781 L 113.523438 112.738281 C 114.835938 112.550781 115.976563 105.578125 115.976563 105.578125 C 115.976563 105.578125 115.976563 69.199219 115.789063 63.171875 C 115.601563 57.144531 114.84375 55.066406 114.84375 55.066406 C 106.550781 52.242188 93.167969 52.425781 93.167969 52.425781 C 92.222656 95.398438 97.316406 112.550781 97.316406 112.550781 L 71.492188 112.550781 C 75.828125 103.5 75.449219 52.234375 75.449219 52.234375 C 65.457031 51.855469 50.949219 55.445313 50.949219 55.445313 L 52.261719 36.785156 C 52.261719 36.785156 67.535156 37.726563 83.929688 37.726563 C 100.328125 37.726563 116.730469 36.785156 116.730469 36.785156 L 117.667969 52.613281 L 145.003906 51.855469 C 145.003906 51.855469 162.53125 54.121094 162.53125 71.273438 C 162.53125 71.273438 162.910156 83.910156 149.523438 89.371094 C 149.523438 89.371094 178.195313 143.105469 268.492188 141.003906 "/>
<path style=" stroke:none;fill-rule:nonzero;fill:rgb(13.699341%,12.199402%,12.5%);fill-opacity:1;" d="M 132.675781 63.164063 C 132.675781 63.164063 147.597656 59.839844 148.742188 70.769531 C 149.882813 81.703125 132.542969 84.839844 132.542969 84.839844 L 132.675781 63.164063 "/>
<path style=" stroke:none;fill-rule:nonzero;fill:rgb(100%,100%,100%);fill-opacity:1;" d="M 171.546875 52.492188 L 187.421875 52.359375 C 187.421875 52.359375 190.214844 53.820313 190.214844 58.691406 C 190.214844 63.558594 190.347656 106.773438 190.347656 106.773438 C 190.347656 106.773438 191.359375 112.117188 192.421875 112.785156 L 177.078125 112.785156 C 177.078125 112.785156 173.753906 112.253906 173.617188 108.714844 C 173.484375 105.179688 173.617188 58.023438 173.617188 58.023438 L 171.546875 52.492188 "/>
<path style=" stroke:none;fill-rule:evenodd;fill:rgb(100%,100%,100%);fill-opacity:1;" d="M 201.226563 52.492188 L 216.226563 52.359375 C 216.226563 52.359375 219.765625 52.757813 219.765625 57.890625 C 219.765625 63.023438 219.898438 94.300781 219.898438 94.300781 C 219.898438 94.300781 221.703125 104.191406 230.242188 103.449219 C 238.777344 102.707031 240.375 95.445313 240.375 95.445313 C 240.375 95.445313 241.039063 93.636719 240.910156 88.371094 C 240.773438 83.105469 241.039063 58.691406 241.039063 58.691406 C 241.039063 58.691406 239.257813 52.359375 238.644531 52.359375 C 238.035156 52.359375 257.71875 52.359375 257.71875 52.359375 L 257.71875 107.441406 C 257.71875 107.441406 258.96875 112.785156 259.84375 112.785156 L 245.109375 112.785156 C 245.109375 112.785156 242.105469 113.316406 241.707031 109.113281 C 241.707031 109.113281 235.1875 115.3125 225.640625 115.3125 C 216.09375 115.3125 203.566406 111.109375 203.566406 97.703125 C 203.566406 84.300781 203.566406 59.488281 203.566406 59.488281 C 203.566406 59.488281 202.554688 54.089844 201.625 53.421875 L 201.226563 52.492188 "/>
<path style=" stroke:none;fill-rule:nonzero;fill:rgb(100%,100%,100%);fill-opacity:1;" d="M 283.59375 71.695313 L 293.195313 90.101563 C 293.195313 90.101563 297.929688 100.3125 306.070313 100.3125 C 306.070313 100.3125 310.460938 100.121094 311.335938 99.246094 C 312.210938 98.371094 317.132813 78.316406 324.472656 69.035156 L 324.472656 105.578125 C 324.472656 105.578125 324.285156 110.125 322.34375 113.050781 L 340.882813 113.050781 C 340.882813 113.050781 338.355469 109.167969 338.355469 102.839844 C 338.355469 96.507813 338.355469 59.089844 338.355469 59.089844 C 338.355469 59.089844 339.210938 53.15625 340.882813 52.359375 L 320.40625 52.359375 C 320.40625 52.359375 318.144531 52.359375 314.472656 60.894531 C 310.804688 69.433594 306.070313 81.773438 306.070313 81.773438 L 305.269531 81.90625 L 295.003906 57.625 C 295.003906 57.625 292.265625 52.492188 288.597656 52.492188 C 284.925781 52.492188 268.382813 52.492188 268.382813 52.492188 C 268.382813 52.492188 270.589844 57.304688 270.589844 60.496094 C 270.589844 63.691406 270.457031 107.574219 270.457031 107.574219 C 270.457031 107.574219 268.914063 112.652344 268.382813 112.652344 L 285.324219 112.652344 C 285.324219 112.652344 283.0625 107.785156 283.0625 103.582031 C 283.0625 99.378906 283.0625 72.226563 283.0625 72.226563 L 283.59375 71.695313 "/>
</g>
</svg>
