<?xml version="1.0" encoding="UTF-8"?>
<svg xmlns="http://www.w3.org/2000/svg" xmlns:xlink="http://www.w3.org/1999/xlink" width="399.9pt" height="147.3pt" viewBox="0 0 399.9 147.3" version="1.1">
<g id="surface1">
<path style=" stroke:none;fill-rule:evenodd;fill:rgb(65.039063%,11.767578%,18.431091%);fill-opacity:1;" d="M 325.265625 124.128906 C 326.4375 124.738281 325.898438 127.328125 327.222656 128.652344 C 327.824219 129.253906 329.171875 129.636719 330.027344 128.03125 C 330.421875 127.289063 330.28125 127.351563 331.136719 127.277344 C 331.949219 128.460938 332.992188 132.339844 333.589844 133.9375 C 334.269531 135.769531 335.09375 136.683594 336.203125 138.121094 C 336.753906 138.828125 336.546875 138.734375 336.527344 139.78125 C 335.855469 139.609375 334.136719 139.289063 333.378906 139.257813 C 330.035156 139.113281 329.164063 139.882813 328.777344 136.476563 C 328.621094 135.097656 328.628906 134.601563 328.222656 133.28125 C 327.796875 131.890625 328.214844 131.40625 326.800781 131.054688 C 325.371094 130.695313 325.796875 130.96875 325.128906 130.570313 C 325.089844 130.542969 325.046875 130.515625 325.007813 130.492188 C 323.261719 129.332031 323.550781 124.78125 325.265625 124.128906 Z M 368.21875 134.871094 C 367.65625 134.6875 366.6875 134.238281 366.074219 134.230469 C 365.152344 134.21875 364.484375 134.816406 363.675781 134.601563 C 363.566406 134.386719 363.589844 134.589844 363.523438 134.105469 C 363.480469 133.734375 363.496094 133.746094 363.535156 133.378906 C 363.96875 129.289063 364.058594 125.210938 363.121094 121.121094 C 362.835938 119.867188 362.480469 117.171875 362.773438 115.835938 C 363.046875 114.609375 363.964844 114.996094 364.511719 115.667969 C 365.289063 116.621094 365.597656 118.140625 365.921875 119.15625 L 367.324219 124.457031 C 367.878906 126.46875 367.359375 129.824219 368.253906 132.488281 C 368.726563 133.914063 368.796875 133.539063 368.21875 134.871094 Z M 327.777344 120.761719 C 328.089844 118.558594 327.730469 117.96875 330.246094 116.726563 C 330.738281 116.480469 331.59375 115.945313 332.089844 115.515625 C 332.398438 115.246094 332.628906 115.070313 332.925781 114.796875 C 333.648438 114.144531 333.199219 114.164063 333.964844 114.171875 C 334.15625 114.824219 334.195313 116.511719 334.136719 117.210938 C 334.046875 118.304688 333.503906 118.667969 332.726563 119.082031 C 332.132813 119.394531 330.988281 119.828125 330.289063 119.972656 C 329.164063 120.207031 328.796875 120.503906 327.777344 120.761719 Z M 336.050781 116.234375 C 336.4375 115.949219 335.742188 116.152344 336.605469 115.949219 C 337.019531 115.851563 336.933594 115.867188 337.28125 116.015625 C 339.128906 116.796875 339.1875 120.621094 339.140625 122.195313 C 339.085938 124.265625 338.804688 124.035156 338.820313 125.234375 C 339.671875 125.621094 342.214844 127.832031 343.152344 128.582031 C 345.683594 130.613281 348.859375 134.195313 350.289063 136.964844 C 350.914063 138.179688 352.890625 141.023438 352.4375 142.398438 C 352.386719 142.417969 352.304688 142.375 352.277344 142.433594 C 351.953125 143.113281 348.605469 140.4375 348.328125 140.125 L 344.054688 135.269531 C 343.675781 134.769531 343.503906 134.429688 343.019531 133.976563 C 340.742188 131.832031 339.40625 129.871094 336.390625 127.21875 C 335.007813 126.007813 333.871094 127.742188 333.117188 125.765625 C 333.644531 124.769531 337.078125 122.859375 336.105469 117.5625 C 335.773438 115.757813 336.035156 116.621094 336.050781 116.234375 Z M 356.859375 131.539063 C 355.199219 130.789063 356.449219 130.472656 353.265625 128.738281 C 351.234375 127.636719 352.183594 125.554688 352.742188 124.066406 C 355.421875 116.914063 353.070313 116.601563 354.964844 113.605469 C 355.089844 113.664063 356.070313 113.832031 355.796875 115.398438 C 355.648438 116.257813 355.382813 116.183594 355.414063 117.597656 C 355.445313 119.160156 356.960938 124.539063 356.914063 126.273438 C 356.867188 128.03125 356.886719 129.777344 356.859375 131.539063 Z M 362.644531 138.710938 C 362.121094 138.3125 361.859375 137.554688 360.773438 136.53125 C 359.960938 135.761719 356.839844 134.816406 357.695313 132.121094 C 358.226563 130.453125 358.078125 130.820313 358.449219 129.027344 C 359.855469 122.179688 357.699219 115.953125 357.738281 114.84375 C 357.777344 113.792969 359.554688 113.1875 360.734375 118.121094 C 362.222656 124.367188 361.339844 132.640625 362.355469 135.539063 C 362.949219 137.230469 363.113281 136.597656 362.644531 138.710938 Z M 344.289063 120.207031 L 343.652344 118.941406 C 342.796875 116.617188 342.503906 113.453125 342.765625 110.96875 C 342.839844 110.261719 343.339844 109.082031 343.546875 108.171875 C 346.441406 108.9375 345.464844 113.121094 345.144531 115.246094 Z M 347.277344 107.617188 C 349.964844 107.964844 350.738281 111.355469 350.730469 113.714844 C 350.726563 115.566406 350.464844 115.746094 350.230469 117.421875 C 350.039063 118.789063 350.242188 120.410156 349.648438 121.265625 C 348.441406 119.140625 347.980469 118.054688 347.996094 115.070313 C 348.007813 112.03125 347.273438 108.441406 347.277344 107.617188 Z M 339.824219 114.929688 C 338.980469 114.183594 338.53125 110.195313 338.640625 109.296875 C 338.894531 107.257813 339.605469 105.753906 340.585938 104.417969 C 343.703125 106.472656 340.371094 113.070313 339.824219 114.929688 Z M 333.554688 101.261719 C 331.828125 101.464844 327.464844 101.09375 324.519531 101.128906 C 325.371094 96.703125 332.140625 97.765625 333.554688 101.261719 Z M 360.84375 108.558594 C 359.105469 108.621094 356.578125 108.085938 355.339844 107.605469 L 352.089844 106.1875 L 347.949219 103.933594 C 345.511719 102.636719 344.519531 101.855469 342.800781 100.914063 C 341.84375 100.386719 339.492188 98.902344 338.175781 99.824219 C 336.53125 100.972656 337.796875 103.871094 337.679688 105.042969 C 337.472656 107.285156 335.121094 107.558594 335.449219 108.90625 C 335.703125 109.941406 336.328125 109.945313 336.152344 111.566406 C 336.046875 112.5625 335.464844 113.179688 334.636719 113.542969 L 333.289063 110.878906 C 332.984375 110.382813 332.953125 110.523438 332.671875 110.003906 C 331.339844 110.015625 331.699219 110.046875 330.699219 110.402344 C 330.101563 110.613281 329.253906 110.683594 328.632813 110.855469 C 326.496094 111.449219 326.8125 112.253906 325.601563 112.734375 C 325.269531 110.53125 326.359375 108.746094 327.980469 107.878906 C 330.636719 106.449219 333.890625 106.96875 334.59375 104.28125 C 334.949219 102.914063 334.710938 101.40625 334.964844 100.121094 C 335.691406 96.476563 338.03125 96.363281 340.054688 94.160156 C 340.46875 93.707031 340.757813 93.226563 341.136719 92.902344 C 343.425781 95.9375 339.867188 96.257813 344.316406 98.421875 C 346.476563 99.480469 349.921875 100.40625 351.992188 101.601563 C 353.132813 102.261719 353.515625 102.636719 354.90625 103.339844 C 356.484375 104.144531 356.921875 104.574219 358.246094 105.433594 C 358.28125 105.457031 358.328125 105.488281 358.367188 105.511719 C 359.46875 106.207031 360.644531 107.035156 360.84375 108.558594 Z M 300.261719 117.460938 C 298.546875 117.488281 298.378906 117.179688 297.941406 115.941406 L 301.546875 110.070313 C 303.742188 105.671875 305.628906 100.722656 306.980469 96.058594 C 307.539063 94.144531 308.546875 90.136719 309.796875 89.226563 C 311.726563 88.914063 311.714844 90.722656 311.722656 92.304688 C 311.742188 96.308594 310.445313 101.113281 309.878906 104.910156 C 309.628906 106.539063 309.480469 107.234375 310.339844 108.671875 C 312.195313 111.777344 307.574219 111.667969 302.851563 115.277344 C 302.398438 115.621094 301.96875 116.058594 301.589844 116.351563 C 300.996094 116.804688 300.699219 116.933594 300.261719 117.460938 Z M 327.289063 94.351563 C 326.476563 94.015625 326.769531 94.3125 325.882813 92.636719 C 324.609375 90.238281 322.46875 82.746094 325.460938 81.335938 C 327.3125 82.3125 326.898438 84.71875 327.085938 87.191406 C 327.261719 89.613281 327.617188 92.886719 327.289063 94.351563 Z M 317.972656 82.066406 C 317.234375 81.996094 313.785156 80.914063 313.316406 80.632813 C 313.363281 80.210938 313.8125 78.539063 314.015625 78.117188 C 314.855469 78.269531 315.585938 78.65625 316.40625 78.851563 C 317.554688 79.128906 317.964844 79.179688 318.992188 79.554688 C 318.847656 80.53125 318.234375 81.339844 317.972656 82.066406 Z M 361.621094 84.398438 C 358.382813 84.378906 354.339844 84.476563 351.851563 85.980469 C 350.003906 87.097656 347.914063 89.996094 345.214844 89.574219 C 345.746094 88.539063 346.214844 87.652344 346.746094 86.679688 C 349.234375 82.128906 349.386719 81.476563 350.683594 76.746094 C 353.585938 77.222656 353.15625 81.378906 359.679688 80.558594 C 359.980469 80.523438 360.238281 80.492188 360.4375 80.457031 C 361.132813 80.34375 360.574219 80.445313 360.761719 80.390625 C 360.789063 80.382813 360.839844 80.367188 360.863281 80.355469 C 360.910156 80.339844 361.046875 80.289063 361.09375 80.269531 L 363.953125 79.128906 C 364.648438 78.828125 368.460938 77.882813 369.253906 77.746094 C 371.738281 77.347656 374.050781 78.113281 376.199219 79.074219 C 375.480469 79.683594 376.425781 79.042969 375.796875 79.339844 C 375.515625 79.472656 375.671875 79.410156 375.355469 79.496094 L 372.4375 80.222656 C 371.152344 80.519531 369.863281 81.109375 368.714844 81.570313 C 364.664063 83.179688 364.21875 84.414063 361.621094 84.398438 Z M 312.507813 75.6875 C 311.65625 78.363281 312.148438 76.914063 311.726563 79.058594 C 311.65625 79.402344 311.554688 79.679688 311.488281 80.113281 C 311.28125 81.484375 311.324219 83.601563 311.105469 85.421875 C 310.828125 87.796875 309.585938 86.953125 307.65625 87.457031 C 307.363281 87.53125 307.132813 87.5625 306.78125 87.730469 L 305.847656 88.339844 C 305.351563 88.707031 304.796875 89.160156 304.277344 89.671875 C 303.328125 90.621094 302.507813 91.640625 301.570313 92.59375 C 301.023438 93.144531 300.710938 93.578125 300.171875 94.097656 C 298.441406 95.785156 297.308594 96.609375 295.378906 98.054688 C 294.550781 98.671875 292.574219 100.472656 291.929688 99.011719 C 291.210938 97.378906 292.703125 95.882813 293.421875 95.089844 L 301.601563 86.007813 C 302.429688 85.070313 304.503906 82.414063 305.273438 81.140625 C 306.265625 79.496094 307.4375 77.179688 308.671875 75.796875 C 310.148438 74.136719 311.085938 74.496094 312.507813 75.6875 Z M 320.230469 76.59375 C 318.925781 76.578125 316.078125 75.378906 314.632813 75.007813 C 314.71875 73.636719 315.296875 73.417969 315.328125 71.777344 C 316.046875 71.890625 317.738281 72.285156 318.421875 72.507813 L 320.703125 73.132813 C 321.785156 73.574219 321.117188 73.28125 321.472656 73.757813 Z M 322.824219 70.746094 C 322.480469 70.53125 320.226563 69.898438 319.671875 69.710938 C 318.785156 69.410156 317.0625 69.046875 316.398438 68.570313 C 316.574219 68.117188 316.671875 67.566406 316.839844 67.109375 L 317.527344 65.628906 C 318.261719 65.90625 318.355469 65.898438 319.214844 66.074219 C 320.128906 66.257813 320.183594 66.417969 320.964844 66.621094 C 322.40625 66.984375 323.183594 66.957031 324.53125 67.597656 C 324.4375 68.222656 324.078125 68.738281 323.816406 69.226563 L 323.183594 70.378906 C 322.839844 70.839844 323.523438 70.253906 322.824219 70.746094 Z M 321.304688 103.699219 L 323.113281 103.832031 C 323.03125 104.273438 319.953125 109.082031 322.878906 113.761719 C 324.160156 115.820313 322.804688 114.59375 323.246094 118.996094 C 323.304688 119.570313 323.289063 120.03125 323.53125 120.554688 L 324.046875 121.378906 C 324.285156 121.761719 324.363281 121.847656 324.726563 122.207031 C 325.222656 122.703125 325.300781 122.679688 325.144531 123.304688 C 324.753906 123.492188 324.5625 123.613281 323.859375 123.304688 C 323.191406 123.011719 321.710938 121.746094 321.257813 121.0625 C 319.683594 118.648438 320.738281 118.132813 320.554688 115.648438 C 320.46875 115.296875 319.371094 114.738281 318.394531 111.039063 C 318.027344 109.640625 318.316406 108.464844 318.796875 107.1875 C 319.054688 106.496094 319.234375 106.703125 319.117188 106.082031 C 319.101563 106.109375 319.214844 106.085938 318.746094 106.359375 C 317.960938 106.820313 317.464844 107.179688 316.691406 107.269531 C 316.980469 105.378906 318.480469 101.179688 319.511719 99.546875 C 320.15625 98.535156 320.730469 98.472656 321.265625 97.558594 C 321.433594 96.949219 320.578125 95.566406 320.164063 94.113281 C 320.140625 94.03125 320.023438 92.472656 319.023438 93.203125 C 316.589844 94.980469 316.421875 106.6875 313.464844 104.386719 C 312.238281 103.433594 314.027344 97.679688 314.386719 96.769531 C 315.503906 93.964844 316.402344 89.835938 318.039063 86.226563 L 321.359375 79.011719 C 323.78125 73.097656 324.355469 72.289063 327.523438 67.53125 C 327.984375 66.839844 328.992188 65.464844 329.945313 65.058594 C 331.230469 66.019531 332.03125 66.527344 330.1875 69.8125 C 329.199219 71.570313 328.894531 72.457031 327.546875 74.546875 C 324.09375 79.921875 323.960938 82.433594 322.867188 84.242188 C 321.878906 85.886719 321.121094 87.273438 321.839844 89.539063 C 322.382813 91.277344 322.699219 93.488281 323.496094 94.851563 C 323.679688 95.164063 324.933594 96.609375 325.019531 97.007813 C 325.035156 97.078125 325.085938 99.085938 324.425781 99.636719 C 323.5625 100.359375 321.421875 101.785156 321.304688 103.699219 Z M 319.28125 59.480469 L 327.726563 61.84375 C 327.703125 61.90625 327.660156 61.917969 327.644531 62.023438 L 326.414063 64.324219 C 324.824219 64.164063 323.8125 63.59375 322.386719 63.296875 C 321.621094 63.144531 321.222656 62.929688 320.414063 62.773438 C 319.566406 62.613281 318.890625 62.507813 318.265625 62.234375 C 318.566406 60.996094 318.847656 60.476563 319.28125 59.480469 Z M 312.503906 71.09375 C 311.484375 71.210938 310.40625 70.648438 309.019531 70.648438 C 308.214844 70.648438 306.796875 70.773438 306.1875 70.996094 C 305.566406 71.234375 304.503906 71.835938 303.941406 71.769531 C 303.796875 71.519531 303.8125 71.980469 303.78125 71.273438 C 303.742188 70.363281 305.414063 68.796875 305.90625 68.164063 C 307.003906 66.757813 308.589844 64.441406 309.921875 63.445313 C 310.757813 62.820313 311.769531 61.691406 312.148438 61.390625 L 314.753906 59.699219 C 315.171875 60.246094 315.941406 59.835938 315.089844 62.414063 C 314.769531 63.398438 314.566406 64.347656 314.246094 65.253906 C 313.773438 66.605469 313.152344 70.136719 312.503906 71.09375 Z M 383.796875 63.824219 C 382.296875 61.664063 383.164063 58.386719 386.304688 58.558594 C 386.511719 59.351563 386.246094 59.398438 386.070313 60.09375 C 385.886719 60.816406 386.050781 61.238281 385.890625 61.847656 C 385.589844 62.996094 384.414063 63.007813 383.796875 63.824219 Z M 321.734375 53.136719 C 322.695313 53.242188 330.003906 55.0625 331.519531 55.519531 C 331.386719 56.691406 330.359375 58.078125 329.714844 58.621094 C 329.410156 58.71875 323.605469 57.144531 322.980469 56.898438 C 322.210938 56.59375 321.28125 56.53125 320.363281 56.179688 Z M 323.117188 49.8125 C 323.296875 49.421875 323.976563 47.582031 324.0625 47.175781 C 324.601563 47.210938 332.253906 49.582031 333.929688 49.878906 C 334.496094 49.976563 334.988281 50.101563 335.378906 50.476563 C 335.054688 51.140625 334.421875 51.984375 333.964844 52.574219 C 332.679688 52.574219 330.136719 51.539063 328.546875 51.332031 L 323.535156 50.078125 C 323.128906 49.878906 323.421875 50.097656 323.117188 49.8125 Z M 317.0625 54.59375 C 313.734375 54.71875 314.355469 52.070313 310.679688 53.113281 C 307.59375 53.988281 304.164063 56.671875 302.070313 57.304688 C 300.980469 57.632813 299.777344 57.898438 298.734375 58.226563 C 297.839844 58.507813 296.285156 59.121094 295.464844 59.28125 C 294.378906 59.492188 292.710938 59.890625 291.835938 59.039063 C 292.074219 57.621094 294.90625 56.472656 296.191406 55.679688 C 296.773438 55.320313 297.378906 54.890625 297.878906 54.636719 C 301.601563 52.742188 301.703125 52.8125 305.117188 51.613281 C 305.839844 51.359375 306.328125 51.269531 307.003906 50.972656 C 308.597656 50.273438 310.105469 49.980469 312.839844 48.671875 L 317.949219 45.84375 C 318.671875 45.539063 319.382813 45.726563 320.003906 46.007813 C 320.222656 47.773438 317.8125 53.074219 317.0625 54.59375 Z M 325.671875 43.863281 C 325.683594 42.949219 326.3125 41.804688 326.8125 41.121094 C 328.199219 41.132813 334.558594 43.011719 336.34375 43.578125 C 337.246094 43.871094 338.585938 43.914063 339.324219 44.40625 C 339.015625 45.515625 338.175781 45.882813 337.90625 47.046875 C 337.136719 46.996094 329.878906 45.113281 328.800781 44.78125 C 327.671875 44.429688 326.746094 44.414063 325.671875 43.863281 Z M 376.121094 38.570313 C 376.796875 38.800781 377.261719 39.253906 377.933594 39.496094 C 378.886719 39.847656 379.503906 39.53125 380.296875 39.867188 C 380.3125 39.921875 380.328125 39.949219 380.328125 40.039063 C 380.335938 40.246094 380.601563 40.242188 380.136719 41.066406 C 379.933594 41.421875 379.996094 41.140625 379.753906 41.855469 C 379.089844 43.796875 379.660156 45.742188 381.339844 45.828125 C 382.527344 45.894531 383.21875 45.078125 383.628906 46.121094 C 384.03125 46.84375 383.335938 47.949219 382.714844 48.339844 C 381.96875 48.808594 381.144531 49.28125 380.335938 49.652344 C 379.265625 50.140625 378.722656 50.082031 378.183594 51.179688 C 377.363281 52.851563 377.699219 54.996094 378.390625 56.789063 C 378.597656 57.3125 378.308594 59.1875 378.105469 59.667969 C 377.71875 60.609375 377.3125 59.890625 376.597656 62.230469 C 376.070313 63.960938 376.742188 64.078125 374.863281 64.570313 C 374.675781 64.121094 374.421875 63.820313 374.265625 63.246094 C 374.128906 62.71875 374.058594 62.164063 373.921875 61.644531 C 372.796875 57.410156 374.921875 51.941406 375.613281 48.480469 C 376.101563 46.058594 377.128906 42.980469 375.925781 40.136719 C 375.519531 39.179688 375.730469 39.269531 376.121094 38.570313 Z M 329.636719 34.273438 C 333.925781 35.222656 339.539063 36.847656 344.109375 37.984375 C 343.839844 38.878906 342.496094 40.753906 341.894531 41.496094 L 328.378906 37.636719 Z M 321.566406 42.414063 C 319.492188 42.425781 318.394531 41.21875 316.378906 41.164063 C 314.597656 41.113281 309.753906 42.003906 307.683594 42.519531 C 306.1875 42.894531 301.648438 44.363281 300.066406 44.953125 C 298.109375 45.695313 292.261719 47.214844 289.742188 47.996094 L 284.609375 49.652344 C 282.65625 50.476563 280.730469 50.582031 279.035156 49.734375 C 279.015625 48.628906 279.140625 48.101563 280.617188 47.191406 C 281.445313 46.679688 282.273438 46.296875 283.351563 45.871094 C 284.359375 45.484375 285.074219 45.132813 286.199219 44.621094 C 288.921875 43.398438 295.839844 41.546875 298.929688 41.085938 C 299.460938 41.007813 299.910156 40.902344 300.398438 40.800781 C 305.535156 39.71875 315.976563 37.878906 319.933594 35.960938 L 323.3125 34.324219 C 324.1875 33.839844 324.105469 33.628906 324.746094 33.839844 C 325.128906 33.960938 325.210938 34.097656 325.464844 34.398438 L 322.921875 39.558594 C 322.421875 40.40625 322.128906 41.710938 321.566406 42.414063 Z M 332.804688 28.265625 C 333.113281 28.253906 347.046875 31.574219 347.851563 32.046875 C 347.867188 32.605469 347.921875 32.304688 347.511719 32.972656 C 347.339844 33.253906 347.253906 33.351563 347.027344 33.65625 C 345.507813 35.761719 346.585938 34.984375 340.226563 33.652344 L 334.800781 32.144531 C 333.910156 31.835938 334.128906 31.847656 333.007813 31.652344 C 332.308594 31.53125 331.914063 31.382813 331.472656 31.023438 C 331.683594 30.164063 332.378906 28.894531 332.804688 28.265625 Z M 367.730469 30.632813 C 367.632813 29.609375 368.175781 29.128906 368.648438 28.382813 C 369.019531 27.796875 369.503906 27.121094 369.929688 26.613281 C 372.464844 26.605469 372.914063 27.433594 373.816406 29.496094 C 374.964844 32.109375 374.492188 31.871094 376.511719 33.742188 L 376.328125 35.328125 C 375.132813 35.4375 374.445313 36.015625 372.894531 34.28125 C 369.339844 29.976563 370.113281 31.683594 367.730469 30.632813 Z M 348.425781 43.519531 C 347.503906 43.820313 346.066406 45.894531 345.480469 46.695313 C 345.179688 47.109375 345.046875 47.300781 344.855469 47.621094 C 343.726563 49.554688 342.925781 50.664063 341.605469 52.332031 C 340.339844 53.933594 338.320313 56.566406 336.0625 56.601563 C 336.058594 55.390625 336.046875 55.605469 336.546875 54.824219 C 337.71875 53.003906 340.09375 49.839844 341.160156 47.988281 L 345.296875 41.847656 C 345.398438 41.683594 345.433594 41.605469 345.507813 41.484375 C 347.4375 38.265625 351.785156 32.28125 354.148438 28.773438 L 355.933594 26.289063 C 356.4375 25.601563 357.480469 23.808594 358.3125 24.414063 C 359.394531 25.203125 358.191406 28.945313 357.679688 29.796875 C 357.011719 30.914063 357.648438 29.621094 356.964844 30.980469 C 356.164063 32.5625 354.171875 35.160156 353.359375 36.496094 C 352.894531 37.273438 352.492188 38.78125 352.5625 39.757813 C 352.589844 40.085938 353.46875 43.300781 353.746094 45.019531 L 354.023438 46.722656 C 354.828125 51.03125 355.003906 57.476563 354.878906 62.542969 C 354.84375 64.136719 354.511719 65.21875 354.253906 66.539063 C 353.996094 67.867188 353.796875 69.035156 352.949219 69.777344 C 349.589844 72.738281 351.246094 60.960938 351.1875 59.234375 C 351.097656 56.386719 350.921875 53.339844 350.378906 50.859375 C 350.050781 49.386719 349.089844 44.371094 348.425781 43.519531 Z M 259.527344 44.320313 C 259.050781 42.433594 260.554688 42.039063 262.753906 40.894531 C 266.558594 38.914063 273.847656 35.484375 277.519531 34.386719 C 279.644531 33.753906 290.027344 29.972656 291.835938 29.703125 L 295.773438 28.746094 C 296.484375 28.519531 296.71875 28.390625 297.601563 28.238281 C 298.492188 28.078125 298.546875 27.878906 299.378906 27.742188 L 306.324219 26.351563 C 309.4375 25.941406 311.589844 25.519531 315.015625 25.527344 C 315.574219 25.675781 315.910156 26.328125 316.0625 26.902344 C 315.570313 26.996094 315.519531 27.464844 314.976563 27.867188 C 313.507813 28.949219 309.410156 29.507813 307.472656 29.699219 C 306.429688 29.804688 291.472656 33.871094 290.824219 34.121094 C 289.597656 34.597656 288.402344 34.789063 287.296875 35.257813 L 280.382813 37.835938 C 278.824219 38.320313 271.683594 41.484375 270.320313 41.886719 C 266.644531 42.976563 263.769531 45.59375 259.527344 44.320313 Z M 334.652344 25.382813 C 334.789063 24.46875 335.65625 23.402344 336.023438 22.574219 L 347.40625 25.671875 C 348.421875 25.96875 350.273438 26.695313 351.105469 26.847656 C 350.820313 27.945313 349.777344 29.21875 349.300781 29.859375 C 346.828125 29.191406 344.53125 28.269531 341.96875 27.648438 C 340.964844 27.402344 339.464844 26.746094 338.359375 26.425781 Z M 362.394531 30.222656 C 361.941406 29.285156 362.136719 26.960938 362.488281 26.054688 C 362.96875 24.8125 363.8125 24.289063 364.839844 23.757813 C 368.015625 22.109375 368.386719 21.753906 372.035156 21.90625 C 372.601563 26.605469 366.726563 25.761719 363.519531 29.246094 C 362.886719 29.9375 362.953125 30.097656 362.394531 30.222656 Z M 320.597656 26.113281 C 320.570313 25.824219 320.519531 25.890625 320.566406 25.539063 C 320.628906 25.097656 320.613281 25.109375 321.058594 24.835938 C 321.09375 24.816406 321.425781 24.671875 321.464844 24.652344 L 324.4375 23.355469 C 328.613281 21.632813 329.085938 19.359375 331.378906 21.683594 C 331.339844 22.121094 330.140625 24.535156 329.761719 25.441406 C 328.921875 27.472656 328.027344 30.101563 326.101563 27.628906 C 324.722656 25.855469 323.253906 25.652344 320.597656 26.113281 Z M 339.007813 17.605469 L 339.574219 16.914063 C 340.4375 17.074219 340.851563 17.347656 341.730469 17.496094 C 344.609375 18.003906 352.085938 20.589844 355.300781 21.246094 C 354.980469 21.867188 354.722656 22.246094 354.351563 22.742188 C 354.03125 23.164063 353.628906 23.632813 353.304688 24.046875 C 351.363281 23.628906 347.652344 22.328125 345.570313 21.71875 C 343.746094 21.179688 338.929688 20.316406 337.855469 19.34375 L 338.925781 17.714844 C 338.949219 17.683594 338.980469 17.636719 339.007813 17.605469 Z M 318.367188 13.847656 C 314.28125 15.742188 314.089844 15.078125 310.949219 15.660156 L 303.164063 16.980469 C 302.414063 17.183594 302.089844 17.316406 301.308594 17.429688 C 298.175781 17.867188 291.632813 19.769531 288.609375 20.648438 C 286.246094 21.335938 283.539063 21.871094 281.433594 22.71875 C 280.257813 23.1875 278.929688 23.371094 277.859375 23.835938 C 275.734375 24.746094 271.867188 25.628906 270.964844 25.996094 C 269.941406 26.410156 268.722656 26.746094 267.605469 27.128906 L 260.980469 29.59375 C 257.652344 30.683594 255.824219 31.546875 252.671875 32.894531 C 248.023438 34.871094 242.839844 37.289063 238.324219 39.085938 L 232.027344 41.90625 C 229.527344 42.738281 225.164063 44.945313 222.40625 46.054688 C 220.28125 46.914063 214.328125 49.652344 212.671875 50.0625 C 209.664063 50.804688 209.234375 49.8125 211.847656 47.859375 C 213.777344 46.414063 220.199219 43.597656 222.644531 42.558594 L 261.050781 26.128906 L 276.089844 20.871094 C 280.503906 19.636719 283.882813 18.347656 288.609375 17.476563 C 292.90625 16.6875 299.425781 14.449219 303.476563 13.988281 C 304.316406 13.890625 304.03125 13.703125 304.96875 13.566406 C 305.761719 13.449219 306.320313 13.386719 307.0625 13.261719 C 308.589844 13.007813 309.246094 12.828125 310.960938 12.777344 C 311.839844 12.746094 312.140625 12.527344 313.085938 12.550781 C 314.027344 12.570313 316.949219 12.929688 317.714844 13.339844 Z M 341.351563 13.308594 C 343.527344 10.675781 342.339844 10.175781 344.628906 10.949219 C 346.296875 11.511719 347.304688 11.703125 349.164063 12.390625 C 350.433594 12.859375 357.402344 14.597656 358.628906 15.164063 C 358.289063 16.078125 357.160156 17.378906 356.59375 18.15625 L 348.921875 15.800781 C 348.671875 15.703125 341.714844 13.605469 341.351563 13.308594 Z M 325.070313 13.519531 C 325.871094 12.84375 331.730469 13.371094 335.246094 9.914063 C 335.636719 9.527344 335.277344 9.804688 335.722656 9.4375 L 336.367188 8.996094 C 336.714844 9.992188 337.066406 10.074219 336.664063 11.351563 C 336.414063 12.136719 335.964844 12.722656 335.617188 13.390625 C 333.339844 17.738281 332.886719 17.621094 331.183594 16.320313 C 330.574219 15.847656 329.890625 15.664063 329.238281 15.371094 C 328.429688 15.003906 327.742188 14.765625 327.054688 14.433594 C 326.179688 14.015625 325.710938 14.109375 325.070313 13.519531 Z M 344.382813 7.914063 C 344.503906 6.839844 345.628906 5.972656 346.148438 4.9375 C 346.804688 4.910156 347.648438 5.109375 348.328125 5.308594 L 360.472656 8.996094 C 361.222656 9.269531 361.863281 9.578125 362.523438 9.699219 C 362.097656 10.585938 361.804688 10.742188 361.253906 11.394531 C 360.828125 11.902344 360.671875 12.28125 360.007813 12.777344 C 359.421875 12.179688 357.246094 11.585938 356.304688 11.265625 L 352.398438 9.953125 C 350.878906 9.429688 346.476563 8.503906 344.382813 7.914063 Z M 367.574219 12.613281 C 367.519531 11.445313 367.992188 11.195313 368.171875 10.335938 C 368.722656 7.613281 362.621094 6.644531 360.652344 5.933594 C 359.066406 5.363281 357.1875 4.964844 355.515625 4.496094 L 346.246094 1.78125 C 345.1875 1.476563 343.992188 1.203125 342.851563 1.21875 C 340.472656 1.253906 341.9375 2.851563 340.535156 4.089844 C 339.5625 4.1875 339.632813 4.324219 338.886719 3.890625 C 337.734375 3.214844 336.199219 2.515625 334.9375 2.0625 C 331.34375 0.773438 325.578125 -0.0976563 321.78125 -0.0859375 C 317.074219 -0.0703125 312.222656 0.203125 307.703125 1.101563 C 303.339844 1.96875 299.359375 2.492188 295.09375 3.585938 C 293.136719 4.089844 291.128906 4.476563 288.992188 4.933594 C 287.347656 5.285156 284.878906 5.820313 282.9375 6.351563 C 281.9375 6.628906 280.964844 6.773438 279.800781 7.128906 L 269.421875 9.882813 C 268.90625 10.035156 268.265625 10.136719 267.851563 10.269531 C 266.980469 10.550781 265.945313 10.90625 265.117188 11.175781 C 263.1875 11.804688 261.070313 12.382813 259.171875 13.003906 C 258.015625 13.378906 257.199219 13.570313 256.222656 13.90625 L 235.203125 20.96875 C 232.8125 21.785156 221.007813 25.996094 219.839844 26.535156 L 200.546875 33.984375 C 196.128906 35.679688 191.40625 37.773438 187.152344 39.535156 C 183.632813 40.996094 179.988281 42.722656 176.523438 44.039063 L 166.164063 48.617188 C 163.152344 49.824219 160.472656 51.097656 157.632813 52.457031 L 148.03125 56.8125 C 147.171875 57.207031 146.347656 57.710938 145.589844 58.027344 L 133.824219 63.53125 C 133.507813 63.714844 133.546875 63.742188 133.230469 63.90625 C 132.992188 64.035156 132.847656 64.070313 132.550781 64.210938 L 124.863281 67.949219 C 124.089844 68.324219 123.144531 68.835938 122.320313 69.269531 L 119.847656 70.480469 C 118.78125 70.996094 118.089844 71.277344 117.234375 71.746094 L 112.261719 74.320313 C 111.429688 74.757813 110.59375 75.113281 109.632813 75.542969 L 105.796875 77.554688 C 102.089844 79.554688 98.394531 81.476563 94.648438 83.273438 C 94.15625 83.507813 93.855469 83.632813 93.394531 83.921875 L 92.113281 84.609375 C 91.058594 85.121094 90.484375 85.449219 89.59375 85.96875 C 89.269531 86.160156 89.34375 86.136719 88.964844 86.332031 L 70.996094 95.863281 C 70.527344 96.105469 70.253906 96.28125 69.78125 96.570313 C 67.878906 97.746094 65.722656 98.914063 63.714844 99.976563 L 60.140625 102.054688 C 59.8125 102.238281 59.410156 102.539063 58.976563 102.820313 L 55.367188 104.832031 C 52.472656 106.738281 48.691406 108.863281 45.769531 110.535156 C 43.214844 112.003906 38.921875 114.769531 36.804688 115.910156 C 33.363281 117.757813 30.128906 119.960938 26.859375 122.058594 L 22.277344 125.039063 C 20.445313 126.382813 18.476563 127.667969 16.585938 128.855469 C 14.28125 130.289063 11.9375 132.085938 9.695313 133.585938 L 6.332031 135.871094 C 5.25 136.613281 0.453125 139.5625 0.0976563 140.636719 C 5.941406 140.582031 10.304688 139.867188 15.90625 138.230469 L 22.386719 136.265625 C 25.78125 135.320313 29.296875 133.871094 32.722656 132.8125 C 35.109375 132.070313 49.039063 126.28125 50.191406 125.683594 C 50.726563 125.410156 50.503906 125.558594 51.039063 125.371094 L 53.464844 124.296875 C 54.265625 123.976563 54.242188 124.046875 54.953125 123.664063 C 56.738281 122.703125 58.578125 121.917969 60.4375 121.046875 C 61.140625 120.722656 60.445313 121.089844 61.007813 120.789063 C 61.800781 120.363281 61.691406 120.269531 62.507813 120.007813 C 64.453125 119.390625 68.21875 117.296875 70.253906 116.308594 C 71.316406 115.785156 72.496094 115.386719 73.460938 114.859375 C 76.320313 113.289063 79.441406 111.804688 82.472656 110.480469 L 91.839844 106.082031 C 92.371094 105.84375 93.066406 105.574219 93.507813 105.429688 C 96.464844 104.464844 98.839844 103.652344 101.984375 103.320313 C 103.296875 103.183594 104.726563 103.0625 105.644531 103.898438 C 105.070313 105.324219 103.3125 105.871094 102.078125 106.671875 L 101.507813 107.074219 C 101.164063 107.28125 101.378906 107.144531 100.980469 107.335938 C 99.152344 108.214844 97.460938 109.34375 95.757813 110.246094 C 95.339844 110.46875 95.011719 110.683594 94.65625 110.902344 L 87.261719 114.761719 C 85.015625 115.789063 83.066406 116.992188 80.925781 118.09375 C 79.046875 119.0625 71.640625 123.582031 70.601563 124.046875 C 68.773438 124.878906 67.089844 125.976563 65.304688 126.886719 L 63.191406 128.085938 C 60.527344 129.417969 57.847656 131.253906 56.042969 132.148438 C 53.050781 133.632813 50.765625 135.421875 47.898438 137.011719 C 47.070313 137.46875 41.417969 140.886719 41.097656 141.25 L 40.804688 142 C 40.804688 141.980469 40.8125 142.066406 40.832031 142.09375 C 41.726563 142.644531 47.433594 142.417969 48.535156 142.347656 C 50.179688 142.234375 60.644531 140.550781 62.089844 140.167969 C 62.738281 139.996094 63.105469 139.792969 63.878906 139.640625 C 67.351563 138.949219 70.902344 137.675781 74.253906 136.683594 C 74.789063 136.527344 75.046875 136.371094 75.707031 136.195313 C 77.707031 135.652344 82.964844 133.835938 84.828125 133.070313 L 96.652344 128.589844 C 96.65625 128.585938 96.65625 128.507813 97.054688 128.332031 C 97.503906 128.140625 97.011719 128.335938 97.496094 128.195313 C 98.058594 128.035156 97.980469 128.089844 98.421875 127.894531 C 98.867188 127.703125 99.527344 127.457031 100.023438 127.179688 L 121.359375 115.996094 C 122.546875 115.492188 124.011719 114.578125 125.179688 113.941406 C 125.339844 113.855469 125.339844 113.867188 125.515625 113.777344 L 133.195313 109.574219 C 135.976563 108.089844 139.960938 105.964844 142.953125 105.160156 C 144.523438 104.734375 145.308594 104.246094 146.640625 105.3125 C 146.519531 108.824219 139.371094 111.449219 136.695313 112.910156 C 134.894531 113.894531 132.804688 115.207031 130.890625 116.019531 C 129.414063 116.648438 123.6875 119.945313 122.992188 120.421875 C 121.242188 121.636719 117.308594 123.722656 115.0625 125.015625 C 114.714844 125.21875 114.488281 125.355469 114.230469 125.523438 L 107.035156 130.144531 L 103.765625 132.609375 C 101.523438 134.066406 99.367188 135.914063 97.226563 137.601563 L 93.964844 140.355469 C 92.960938 141.332031 91.878906 142.226563 91.332031 143.472656 C 92.398438 143.902344 95.910156 143.558594 97.480469 143.460938 L 100.355469 143.058594 C 101.539063 142.945313 102.171875 142.617188 103.339844 142.402344 C 105.46875 142.007813 107.210938 141.324219 109.199219 140.859375 C 111.214844 140.386719 112.605469 140 114.40625 139.332031 C 117.945313 138.023438 121.421875 136.914063 124.882813 135.621094 C 127.589844 134.613281 129.898438 133.492188 132.640625 132.382813 C 133.210938 132.152344 133.507813 132.144531 133.953125 131.933594 L 140.140625 129.019531 C 143.382813 127.621094 146.414063 125.847656 149.554688 124.289063 C 150.246094 123.949219 150.265625 123.898438 150.824219 123.613281 L 152.585938 122.691406 C 153.152344 122.417969 152.714844 122.644531 153.097656 122.417969 L 156.273438 120.5625 C 156.8125 120.257813 157.011719 120.164063 157.558594 119.894531 C 157.785156 119.78125 157.992188 119.671875 158.21875 119.558594 C 158.484375 119.414063 158.476563 119.429688 158.710938 119.285156 L 168.753906 113.242188 C 169.140625 113.011719 169.570313 112.820313 169.882813 112.628906 L 172.070313 111.296875 C 174.363281 110.1875 176.605469 108.664063 178.898438 107.507813 L 183.496094 104.929688 C 189.679688 101.136719 191.632813 104.492188 188.964844 107.121094 C 188.929688 107.148438 188.890625 107.1875 188.859375 107.214844 C 187.574219 108.441406 185.777344 109.640625 184.324219 110.632813 C 183.894531 110.921875 183.746094 111.128906 183.394531 111.460938 C 182.753906 112.058594 182.007813 112.449219 181.253906 112.996094 L 161.753906 127.996094 C 160.71875 128.785156 159.550781 129.40625 158.5625 130.230469 C 157.664063 130.980469 156.320313 131.894531 155.339844 132.449219 L 146.335938 137.976563 C 145.609375 138.460938 144.757813 138.792969 143.976563 139.308594 C 142.84375 140.058594 140.40625 140.867188 139.671875 142.082031 C 140.324219 142.425781 142.324219 142.773438 143.109375 142.78125 C 144.199219 142.789063 146.910156 142.429688 148.007813 142.179688 C 149.359375 141.871094 151.824219 141.078125 152.964844 140.890625 C 156.183594 140.355469 159.296875 138.71875 162.425781 137.625 L 168.480469 135.332031 C 169.46875 134.851563 170.390625 134.539063 171.480469 134.09375 C 177.523438 131.621094 184.597656 128.414063 189.722656 125.007813 C 190.066406 124.777344 190.054688 124.789063 190.46875 124.582031 C 193.460938 123.09375 196.148438 121.199219 199.046875 119.59375 C 201.1875 118.402344 203.261719 116.9375 205.324219 115.59375 C 205.359375 115.570313 205.40625 115.539063 205.441406 115.515625 L 211.714844 111.535156 C 212.566406 110.976563 213.4375 110.394531 214.203125 109.753906 C 215.59375 108.59375 217.785156 107.414063 219.234375 106.449219 L 221.839844 104.8125 C 223.523438 103.765625 225.652344 102.523438 227.503906 101.917969 C 229.449219 101.289063 229.140625 101.488281 230.816406 101.753906 C 230.921875 104.445313 230.089844 104.417969 228.695313 105.660156 C 227.519531 106.703125 226.6875 107.542969 225.53125 108.332031 L 219.113281 113.53125 C 218.699219 113.902344 218.566406 113.984375 218.265625 114.222656 C 218.0625 114.386719 217.765625 114.65625 217.515625 114.851563 C 217.359375 114.972656 217.242188 115.054688 217.085938 115.1875 L 203.050781 126.554688 C 199.910156 129.226563 196.523438 131.621094 193.359375 134.316406 C 190.691406 136.585938 181.570313 142.90625 181.234375 145.210938 C 184.421875 147.273438 199.648438 140.21875 204.535156 138.527344 C 206.109375 137.984375 208.09375 136.847656 210.011719 136.238281 C 212.050781 135.589844 213.710938 134.609375 215.480469 133.804688 C 216.589844 133.292969 218.453125 132.402344 219.453125 131.765625 C 222.363281 129.914063 225.367188 128.628906 228.261719 126.621094 C 228.71875 126.304688 229.144531 126.03125 229.535156 125.761719 C 231.296875 124.539063 233.050781 123.265625 234.914063 122.195313 C 235.925781 121.617188 236.90625 120.746094 237.785156 120.0625 C 238.535156 119.476563 239.382813 119.058594 240.101563 118.480469 L 243.464844 115.835938 C 243.980469 115.429688 244.128906 115.402344 244.628906 115.074219 L 251.308594 109.730469 C 253.453125 107.921875 255.675781 106.359375 257.761719 104.359375 C 258.609375 103.539063 260.226563 102.433594 261.378906 101.96875 C 261.765625 101.8125 261.734375 101.789063 262.21875 101.792969 L 262.878906 101.945313 C 263.144531 101.503906 263.246094 102.734375 262.902344 103.511719 C 262.058594 105.429688 260.148438 107.304688 258.585938 108.667969 L 256.648438 110.421875 C 253.691406 113.085938 249.84375 115.757813 247.21875 118.449219 L 245.964844 119.730469 C 243.304688 122.03125 241.007813 124.710938 238.59375 127.292969 L 235.535156 130.648438 C 232.992188 133.371094 230.277344 136.007813 228.007813 139.207031 L 226.960938 140.667969 C 226.441406 141.367188 225.460938 142.929688 225.410156 143.859375 C 226.804688 144.460938 233.238281 142.238281 235.070313 141.449219 C 238.964844 139.785156 240.347656 139.375 244.261719 137.269531 C 248.851563 134.804688 252.953125 132.082031 257.382813 129.257813 L 258.621094 128.199219 C 258.65625 128.171875 258.703125 128.144531 258.738281 128.117188 L 259.089844 127.867188 C 259.308594 127.703125 259.253906 127.734375 259.550781 127.527344 L 264.824219 123.324219 C 264.855469 123.296875 264.898438 123.261719 264.933594 123.238281 L 273.878906 114.929688 C 276.4375 112.5625 278.316406 110.367188 280.851563 107.921875 C 281.464844 107.332031 281.878906 106.917969 282.464844 106.253906 C 283.109375 105.515625 286.757813 101.039063 287.796875 102.003906 C 288.695313 102.835938 286.035156 105.949219 285.492188 106.765625 L 285.09375 107.34375 C 285.070313 107.382813 285.039063 107.429688 285.015625 107.464844 C 284.835938 107.753906 284.8125 107.835938 284.5625 108.167969 C 282.785156 110.542969 278.734375 115.929688 276.550781 118.007813 C 276.519531 118.035156 276.480469 118.074219 276.449219 118.105469 L 266.355469 127.976563 C 265.839844 128.4375 265.636719 128.796875 265.140625 129.296875 L 261.589844 132.710938 C 261.214844 133.089844 261.242188 133.082031 260.960938 133.421875 L 260.394531 134.039063 C 258.273438 136.058594 255.128906 139.019531 252.851563 140.660156 C 252.421875 140.96875 252.105469 141.3125 251.859375 141.851563 C 253.28125 142.386719 259.257813 140.132813 260.980469 139.488281 C 262.65625 138.859375 264.800781 137.867188 266.480469 137.0625 C 267.53125 136.554688 268.441406 136.320313 269.476563 135.789063 C 269.945313 135.546875 270.472656 135.191406 270.855469 135.03125 C 272.058594 134.511719 273.507813 133.660156 274.648438 133.011719 C 275.136719 132.730469 275.5625 132.4375 276.003906 132.222656 C 279.039063 130.726563 282.101563 128.679688 284.855469 126.738281 C 285.316406 126.414063 285.71875 126.222656 286.160156 125.921875 L 292.222656 121.710938 C 293.238281 121.007813 294.039063 120.707031 295.351563 120.730469 C 296.027344 121.664063 296.378906 121.992188 295.570313 123.304688 C 295.355469 123.652344 295.597656 123.289063 295.316406 123.652344 L 295.136719 123.871094 C 292.6875 126.742188 289.960938 129.105469 287.820313 132.269531 C 287.578125 132.628906 287.421875 133.027344 287.222656 133.40625 C 286.886719 134.039063 286.804688 133.984375 286.480469 134.628906 C 285.976563 135.617188 284.859375 137.164063 284.953125 138.292969 C 285.449219 138.292969 286.734375 138.25 287.046875 138.199219 C 288.367188 137.988281 290.40625 137.960938 291.378906 137.832031 C 291.660156 137.792969 291.585938 137.679688 292.367188 137.621094 C 292.738281 137.59375 293.171875 137.625 293.546875 137.625 C 295.148438 137.636719 297.046875 137.53125 298.371094 137.480469 C 298.863281 137.457031 300.109375 137.433594 300.546875 137.425781 C 302.746094 137.386719 305.335938 137.3125 307.515625 137.542969 C 309.179688 137.71875 310.519531 137.699219 312.15625 137.960938 C 314.871094 138.410156 318.382813 138.644531 321.023438 139.359375 L 325.441406 140.144531 C 326.816406 140.375 328.351563 140.492188 329.890625 140.769531 C 331.804688 141.113281 341.628906 142.6875 342.703125 142.703125 C 343.777344 142.71875 343.679688 142.882813 344.503906 142.96875 C 346.6875 143.207031 348.769531 143.382813 350.746094 143.847656 C 351.632813 144.054688 352.1875 144.113281 353.105469 144.121094 C 354.730469 144.140625 354.308594 143.351563 355.816406 144.234375 C 358.753906 145.957031 361.921875 145.773438 365.484375 145.773438 C 367.34375 145.777344 368.34375 146.179688 369.195313 144.832031 C 369.070313 143.457031 367.902344 143.066406 367.089844 142.246094 C 366.390625 141.542969 365.460938 140.246094 366.296875 138.832031 C 368.386719 135.273438 372.054688 138.257813 372.109375 138.265625 C 372.554688 135.480469 372.777344 134.109375 372.742188 130.816406 C 372.699219 126.347656 370.289063 119.519531 367.726563 115.539063 L 366.015625 113.171875 C 365.496094 112.53125 365.039063 112.140625 364.640625 111.40625 C 364.539063 111.222656 364.449219 111.097656 364.335938 110.78125 C 363.265625 107.953125 364.996094 103.882813 366.589844 101.972656 C 367.113281 101.34375 366.972656 101.378906 367.621094 100.863281 C 368.121094 100.46875 368.226563 100.339844 368.636719 99.953125 C 371.589844 97.164063 373.84375 93.855469 375.8125 90.265625 C 376.050781 89.832031 375.824219 90.257813 376.046875 89.894531 C 376.402344 89.316406 376.085938 89.972656 376.382813 89.257813 C 377.191406 87.351563 378.160156 83.789063 379.386719 82.164063 C 380.71875 80.394531 381.796875 79.46875 383.574219 78.597656 C 385.394531 77.703125 387.363281 76.734375 389.355469 76.246094 C 391.878906 75.621094 395.699219 75.164063 397.320313 72.777344 C 399.925781 68.933594 397.144531 67.210938 395.449219 64.496094 C 394.613281 63.164063 393.972656 61.539063 393.757813 59.964844 C 393.613281 58.90625 394.058594 58.296875 392.851563 57.964844 C 392.109375 57.753906 391.253906 57.976563 390.484375 58.113281 C 389.199219 58.339844 388.507813 58.582031 387.742188 57.953125 C 387.972656 55.578125 391.921875 54.921875 392.234375 53.203125 C 392.570313 51.347656 385.199219 44.308594 389.855469 43.789063 C 390.613281 45.902344 393.660156 44.578125 394.097656 43.652344 C 395.140625 41.4375 389.273438 34.710938 387.953125 33.128906 C 385.652344 30.371094 381.816406 26.941406 378.441406 25.59375 C 376.632813 24.871094 376.484375 24.304688 375.105469 23.339844 C 375.214844 22.550781 375.515625 21.894531 375.863281 21.257813 C 376.886719 19.386719 376.320313 17.023438 374.4375 15.996094 C 372.253906 14.804688 369.761719 13.679688 367.574219 12.613281 Z M 367.574219 12.613281 "/>
<path style=" stroke:none;fill-rule:evenodd;fill:rgb(100%,100%,100%);fill-opacity:1;" d="M 192.226563 63.472656 C 192.253906 63.183594 192.40625 62.929688 192.527344 62.722656 L 195.273438 58.109375 C 196.007813 58.503906 196.390625 59.371094 196.390625 60.226563 C 196.390625 61.1875 195.648438 62.164063 195.09375 62.613281 C 194.390625 63.167969 193.445313 63.472656 192.226563 63.472656 Z M 228.132813 71.402344 C 227.246094 71.402344 226.164063 71.480469 225.382813 71.101563 C 225.414063 72.394531 226.546875 73.933594 227.242188 74.121094 C 227.214844 74.46875 226.867188 74.863281 226.699219 75.15625 C 225.871094 76.578125 224.359375 78.496094 222.90625 79.234375 C 221.839844 79.769531 221.492188 80.011719 220.179688 80.011719 C 219.484375 80.011719 218.765625 79.503906 218.765625 78.804688 C 218.765625 77.4375 220.78125 74.40625 221.601563 73.296875 L 222.539063 72.136719 C 222.945313 71.714844 223.359375 71.167969 223.878906 70.703125 C 224.050781 70.546875 224.113281 70.539063 224.289063 70.363281 C 226.414063 68.265625 230.886719 66.476563 230.886719 68.078125 C 230.886719 69.695313 229.175781 71.402344 228.132813 71.402344 Z M 258.839844 71.476563 C 258.109375 71.476563 257.640625 71.246094 256.980469 71.246094 C 257.015625 71.691406 257.425781 72.71875 257.636719 73.003906 C 258.078125 73.59375 258.632813 73.957031 258.839844 74.273438 C 258.433594 74.886719 258.070313 75.539063 257.628906 76.140625 C 257.402344 76.449219 257.199219 76.707031 256.980469 76.992188 C 255.988281 78.289063 254.136719 80.011719 252.222656 80.011719 C 251.480469 80.011719 250.363281 80.054688 250.363281 78.726563 C 250.363281 77.46875 252.429688 74.394531 253.253906 73.28125 C 254.121094 72.105469 254.765625 71.304688 255.921875 70.320313 C 256.628906 69.714844 256.710938 69.652344 257.484375 69.121094 C 258.171875 68.652344 259.453125 67.941406 260.265625 67.714844 C 260.855469 67.546875 262.554688 67.140625 262.554688 68.230469 C 262.554688 69.003906 261.828125 69.917969 261.3125 70.441406 C 260.710938 71.046875 260.011719 71.476563 258.839844 71.476563 Z M 233.191406 65.058594 C 231.546875 64.171875 231.816406 64.226563 229.84375 64.226563 C 228.539063 64.226563 227.132813 64.621094 226.070313 64.921875 C 224.972656 65.234375 223.863281 65.722656 222.878906 66.21875 C 221.90625 66.707031 220.96875 67.285156 220.117188 67.941406 C 219.496094 68.414063 218.8125 68.90625 218.265625 69.457031 C 218.058594 69.664063 217.929688 69.828125 217.695313 70.011719 C 216.523438 70.929688 214.449219 73.828125 213.734375 75.046875 C 213.152344 76.046875 212.699219 76.921875 212.179688 77.996094 C 211.945313 78.484375 211.363281 78.722656 210.910156 78.980469 C 210.273438 79.339844 209.128906 80.046875 208.507813 79.332031 C 208.550781 78.820313 209.0625 78.195313 209.339844 77.761719 C 210.863281 75.359375 212.601563 72.640625 214.050781 70.238281 C 214.796875 69.011719 216.265625 67.039063 215.160156 65.546875 C 213.820313 63.746094 209.976563 64.304688 208.152344 64.699219 C 207.671875 64.804688 207.171875 64.933594 206.664063 65.074219 C 205.753906 65.324219 205.421875 65.757813 204.996094 65.304688 L 204.855469 65.140625 C 204.847656 65.128906 204.835938 65.113281 204.820313 65.101563 C 204.160156 64.417969 203.144531 64.226563 202.1875 64.226563 C 201.046875 64.226563 199.652344 65.183594 198.980469 65.726563 C 198.765625 65.902344 198.59375 66.054688 198.363281 66.234375 C 197.894531 66.605469 197.546875 66.980469 197.113281 67.382813 L 195.890625 68.480469 C 194.746094 69.453125 194.210938 70.34375 192.402344 70.980469 C 192.070313 71.097656 191.816406 71.171875 191.476563 71.246094 C 191.175781 71.308594 190.746094 71.367188 190.515625 71.476563 C 190.570313 72.144531 191.324219 72.914063 192.003906 72.914063 C 193.675781 72.914063 194.648438 72.195313 195.867188 71.328125 C 196.359375 70.976563 196.816406 70.570313 197.257813 70.167969 C 197.445313 70.007813 197.320313 70.039063 197.578125 69.96875 L 191.824219 78.472656 C 191.613281 78.789063 191.445313 79.011719 191.242188 79.316406 L 188.359375 83.5625 L 194.753906 83.5625 C 194.871094 83.109375 195.589844 82.234375 195.878906 81.835938 C 196.289063 81.277344 196.621094 80.707031 197.039063 80.140625 C 197.859375 79.03125 198.5625 77.824219 199.382813 76.710938 C 199.800781 76.144531 200.148438 75.597656 200.5625 75.039063 C 201.371094 73.949219 201.015625 74.339844 202.398438 73.957031 C 203.632813 73.613281 205.21875 72.707031 205.535156 71.328125 C 205.214844 71.402344 203.453125 71.773438 203.453125 71.023438 C 203.453125 70.4375 204.101563 69.296875 204.523438 68.941406 C 205.890625 67.765625 208.433594 68.039063 208.433594 68.984375 C 208.433594 69.804688 207.980469 70.355469 207.539063 71.023438 L 202.453125 78.695313 C 201.914063 79.535156 200.777344 81.191406 200.777344 82.121094 C 200.777344 82.714844 201.414063 83.246094 201.839844 83.464844 C 202.683594 83.886719 203.703125 83.9375 204.714844 83.9375 C 206.507813 83.9375 208.988281 82.714844 210.539063 81.921875 C 210.996094 81.691406 211.886719 81.1875 212.378906 81.144531 C 214.5625 84.464844 219.449219 84.371094 222.660156 82.757813 C 222.90625 82.632813 223.03125 82.546875 223.230469 82.433594 C 223.421875 82.324219 223.65625 82.148438 223.898438 82.121094 C 224.148438 83.089844 226.246094 83.710938 227.171875 83.710938 C 230.472656 83.710938 230.84375 82.609375 232.445313 81.746094 C 232.59375 82.3125 233.28125 82.789063 233.742188 83.078125 C 235.746094 84.308594 238.839844 83.578125 240.722656 82.753906 C 241.808594 82.277344 242.851563 81.628906 243.894531 81.070313 C 244.152344 81.5625 244.503906 81.867188 244.878906 82.257813 C 245.289063 82.679688 245.628906 82.855469 246.175781 83.132813 C 247.964844 84.046875 250.980469 83.992188 252.902344 83.34375 C 253.257813 83.222656 253.859375 82.976563 254.152344 82.804688 C 254.339844 82.691406 254.503906 82.601563 254.71875 82.472656 C 254.925781 82.347656 255.128906 82.1875 255.34375 82.121094 C 256.414063 82.851563 256.382813 83.710938 259.433594 83.710938 C 261.519531 83.710938 264.222656 82.003906 265.507813 80.441406 C 265.683594 80.230469 265.714844 80.160156 265.921875 79.953125 C 266.824219 79.058594 268.078125 77.378906 268.96875 76.40625 C 269.148438 76.210938 269.214844 76.101563 269.378906 75.914063 L 269.824219 75.386719 C 269.996094 75.195313 270.070313 75.101563 270.238281 74.898438 C 271.515625 73.355469 272.796875 71.808594 274.136719 70.328125 C 274.449219 69.984375 274.71875 69.5625 275.269531 69.515625 C 275.222656 70.078125 274.03125 71.621094 273.664063 72.1875 L 271.296875 75.671875 C 269.671875 77.949219 268.109375 80.316406 266.558594 82.640625 C 266.378906 82.914063 266.058594 83.242188 265.976563 83.5625 L 272.296875 83.5625 C 272.398438 83.179688 273.742188 81.382813 274.015625 81.003906 L 276.046875 78.078125 C 276.164063 77.902344 276.214844 77.804688 276.339844 77.628906 L 278.140625 75.074219 C 278.316406 74.808594 278.550781 74.480469 278.78125 74.289063 C 279.007813 74.101563 280.601563 73.945313 281.8125 73.066406 C 282.257813 72.742188 282.933594 72.019531 283.074219 71.402344 C 282.742188 71.429688 280.992188 71.769531 280.992188 71.023438 C 280.992188 70.019531 282.199219 68.78125 282.878906 68.40625 C 283.761719 67.914063 286.050781 67.730469 286.050781 69.136719 C 286.050781 69.808594 284.753906 71.59375 284.277344 72.246094 C 283.585938 73.195313 282.964844 74.167969 282.300781 75.148438 C 281.296875 76.621094 280.367188 78.117188 279.460938 79.660156 C 278.925781 80.558594 278.765625 80.964844 278.765625 82.046875 C 278.765625 83.414063 280.464844 84.316406 281.703125 84.136719 C 285.089844 83.648438 287.097656 82.679688 289.628906 80.628906 C 290.148438 80.207031 291.109375 79.207031 291.476563 78.652344 C 291.066406 78.652344 291.078125 78.714844 290.777344 78.847656 C 289.902344 79.230469 287.316406 80.332031 286.472656 80.117188 C 285.449219 79.851563 286.566406 78.214844 286.796875 77.824219 L 288.714844 74.785156 C 289.058594 74.253906 289.355469 73.761719 289.710938 73.230469 C 289.882813 72.96875 289.988281 72.761719 290.171875 72.488281 L 291.136719 70.980469 C 291.863281 69.851563 293.1875 68.078125 293.1875 66.71875 C 293.1875 64.953125 291.046875 64.226563 289.246094 64.226563 C 287.472656 64.226563 285.816406 64.507813 284.238281 65.03125 C 283.964844 65.121094 283.765625 65.164063 283.492188 65.257813 C 283.199219 65.359375 283.070313 65.4375 282.703125 65.4375 C 282.589844 65.007813 282.03125 64.703125 281.664063 64.53125 C 279.007813 63.273438 276.003906 65.402344 274.175781 66.96875 C 273.054688 67.933594 272.027344 68.953125 271.011719 70.023438 C 270.808594 70.238281 270.753906 70.371094 270.53125 70.59375 C 269.179688 71.953125 267.597656 74.121094 266.21875 75.578125 C 265.871094 75.941406 265.601563 76.273438 265.253906 76.632813 C 264.730469 77.164063 264.289063 77.765625 263.765625 78.289063 C 263.40625 78.652344 263.078125 78.992188 262.660156 79.289063 C 262.464844 79.429688 262.234375 79.632813 261.964844 79.632813 C 261.429688 79.632813 262.0625 78.847656 262.152344 78.695313 C 262.378906 78.328125 262.546875 78.085938 262.753906 77.722656 C 263.796875 75.933594 266.476563 71.917969 267.699219 70.058594 L 270.199219 66.253906 C 270.4375 65.890625 271.328125 64.628906 271.402344 64.304688 C 270.933594 64.304688 270.78125 64.226563 270.289063 64.226563 L 265.460938 64.226563 C 265.230469 64.226563 265.214844 64.429688 265.097656 64.617188 C 264.976563 64.820313 264.894531 64.921875 264.785156 65.132813 C 264.097656 64.761719 263.789063 64.226563 262.40625 64.226563 C 260.703125 64.226563 259.128906 64.429688 257.601563 64.9375 C 255.398438 65.664063 253.351563 66.589844 251.53125 67.980469 C 248.921875 69.980469 246.804688 72.371094 245.117188 75.285156 C 244.824219 75.789063 244.59375 76.253906 244.34375 76.765625 C 244.078125 77.296875 243.921875 77.839844 243.421875 78.167969 C 242.535156 78.757813 241.390625 79.632813 240.253906 79.632813 C 239.933594 79.632813 239.660156 79.402344 239.660156 79.105469 C 239.660156 78.597656 241.589844 75.898438 241.964844 75.328125 C 242.753906 74.132813 248.8125 65.214844 249.253906 64.378906 L 243.378906 64.378906 C 241.476563 67.257813 239.15625 70.851563 237.171875 73.636719 C 236.921875 73.996094 236.710938 74.316406 236.464844 74.648438 C 236.214844 74.984375 235.96875 75.304688 235.71875 75.632813 C 235.226563 76.277344 234.671875 76.886719 234.101563 77.464844 C 233.296875 78.277344 232.191406 79.632813 230.964844 79.632813 C 230.757813 79.632813 230.753906 79.597656 230.589844 79.558594 C 230.328125 79.011719 230.8125 78.496094 231.109375 78.042969 L 232.046875 76.582031 C 232.691406 75.578125 233.308594 74.695313 233.964844 73.699219 C 234.300781 73.1875 234.589844 72.746094 234.914063 72.246094 L 242.589844 60.785156 C 243.214844 59.828125 243.835938 58.824219 244.511719 57.90625 C 244.820313 57.488281 245.222656 56.898438 245.460938 56.449219 L 239.214844 56.449219 C 239.15625 56.65625 239.003906 56.808594 238.871094 57.007813 C 238.238281 57.972656 233.550781 64.789063 233.191406 65.058594 Z M 185.164063 61.8125 C 184.617188 61.519531 184.144531 61.164063 183.808594 60.621094 C 183.183594 59.613281 183.148438 57.628906 183.515625 56.363281 C 183.636719 55.960938 183.855469 55.320313 184.066406 54.960938 C 184.28125 54.59375 184.601563 54.710938 185.464844 54.710938 C 187.652344 54.710938 188.953125 55.328125 189.699219 55.394531 C 189.605469 55.746094 188.824219 56.621094 188.558594 56.953125 C 188.128906 57.496094 187.78125 57.96875 187.363281 58.53125 C 186.839844 59.238281 185.484375 61.195313 185.164063 61.8125 Z M 191.710938 53.355469 C 191.265625 53.355469 190.6875 53.148438 190.296875 53.046875 C 189.855469 52.941406 189.3125 52.835938 188.871094 52.757813 C 188.222656 52.648438 186.476563 52.292969 185.90625 52.292969 C 186.101563 51.546875 189.527344 49.847656 190.460938 49.59375 C 191.734375 49.242188 193.746094 48.835938 195.121094 48.820313 C 195.675781 48.8125 196.378906 48.785156 196.839844 48.820313 C 196.738281 48.96875 194.53125 50.777344 194.234375 51.011719 C 193.964844 51.222656 191.714844 53.351563 191.710938 53.351563 Z M 164.644531 59.394531 C 164.644531 61.226563 164.78125 61.648438 165.757813 62.945313 C 166.007813 63.277344 166.144531 63.328125 166.445313 63.605469 C 168.035156 65.0625 171.316406 65.121094 173.472656 64.664063 C 175.1875 64.292969 176.671875 63.269531 177.429688 61.660156 C 177.046875 61.660156 176.550781 61.816406 176.183594 61.902344 C 174.554688 62.28125 171.300781 62.511719 170.339844 60.859375 C 169.71875 59.789063 170.273438 58.449219 171.128906 57.597656 C 172.785156 55.953125 176.5625 54.789063 178.84375 54.789063 C 178.4375 55.648438 178.324219 57.359375 178.324219 58.488281 C 178.324219 59.304688 178.621094 60.394531 178.835938 60.992188 C 179.078125 61.671875 179.503906 62.398438 179.894531 62.933594 L 180.574219 63.753906 C 180.742188 63.953125 180.796875 63.945313 180.976563 64.101563 C 181.132813 64.230469 181.203125 64.339844 181.359375 64.464844 C 181.6875 64.734375 182.777344 65.5625 183.15625 65.664063 C 183.144531 66.273438 181.488281 69.316406 180.984375 70.105469 C 180.246094 71.261719 180.019531 71.621094 179.195313 72.742188 C 178.191406 74.09375 177.199219 75.136719 176.039063 76.332031 L 174.277344 77.863281 C 174.027344 78.054688 173.886719 78.171875 173.640625 78.351563 C 170.769531 80.398438 167.605469 81.898438 163.898438 81.898438 C 161.269531 81.898438 159.378906 81.722656 157.101563 80.121094 C 156.878906 79.960938 156.8125 79.863281 156.613281 79.710938 C 156.441406 79.574219 156.304688 79.453125 156.148438 79.273438 C 152.558594 75.121094 155.222656 70.117188 161.296875 70.117188 C 164.699219 70.117188 164.867188 72.871094 162.324219 73.578125 C 161.765625 73.734375 160.03125 73.96875 159.441406 73.96875 C 159.46875 74.328125 159.621094 74.347656 159.871094 74.515625 C 160.105469 74.667969 160.253906 74.808594 160.484375 74.949219 C 160.90625 75.207031 161.3125 75.441406 161.808594 75.644531 C 163.980469 76.53125 167.140625 76.664063 169.222656 75.371094 C 172.425781 73.382813 170.867188 69.839844 167.511719 68.488281 C 163.171875 66.742188 156.695313 67.039063 152.699219 69.460938 C 150.5625 70.753906 148.660156 73.023438 148.660156 75.859375 C 148.660156 83.101563 157.414063 85.523438 163.304688 85.523438 C 167.632813 85.523438 169.945313 85.152344 173.964844 83.742188 C 174.652344 83.496094 175.273438 83.183594 175.871094 82.882813 C 176.484375 82.570313 177.078125 82.273438 177.671875 81.914063 C 178.855469 81.191406 179.863281 80.472656 180.914063 79.621094 C 184.699219 76.574219 187.113281 72.917969 189.527344 68.8125 C 189.714844 68.496094 190.460938 67.273438 190.515625 67.023438 C 193.019531 67.023438 194.816406 66.386719 196.386719 65.433594 C 197.636719 64.667969 199.289063 62.835938 199.289063 60.828125 C 199.289063 59.421875 199.128906 58.769531 198.367188 57.613281 C 197.691406 56.578125 197.050781 56.246094 196.6875 55.695313 C 196.914063 54.828125 199.621094 51.996094 200.496094 51.105469 L 201.574219 50.089844 C 202.171875 49.480469 204.652344 47.519531 204.9375 47.085938 C 204.703125 47.078125 204.425781 47.015625 204.15625 46.976563 C 200.394531 46.410156 194.691406 46.414063 191.03125 46.929688 C 189.132813 47.195313 187.300781 47.71875 185.628906 48.390625 C 184.203125 48.964844 182.460938 50.007813 181.390625 51.105469 L 180.652344 51.789063 C 180.324219 52.0625 180.1875 51.84375 179.40625 51.960938 C 177.996094 52.179688 176.617188 52.074219 174.394531 52.457031 C 172.71875 52.746094 171.570313 53.019531 170.003906 53.589844 C 167.664063 54.441406 164.644531 56.664063 164.644531 59.394531 Z M 164.644531 59.394531 "/>
<path style=" stroke:none;fill-rule:evenodd;fill:rgb(100%,100%,100%);fill-opacity:1;" d="M 245.992188 60.453125 C 245.992188 62.523438 249.691406 62.496094 251.238281 61.398438 C 251.921875 60.914063 252.335938 60.054688 252.335938 59.148438 C 252.335938 58.246094 251.21875 57.621094 250.296875 57.621094 C 249.023438 57.621094 248.328125 57.730469 247.242188 58.433594 C 246.730469 58.765625 245.992188 59.65625 245.992188 60.453125 Z M 245.992188 60.453125 "/>
<path style=" stroke:none;fill-rule:evenodd;fill:rgb(100%,100%,100%);fill-opacity:1;" d="M 290.921875 83.164063 C 290.921875 81.167969 293.664063 81.296875 293.664063 83.007813 L 293.664063 83.394531 C 293.664063 84.84375 290.921875 85.101563 290.921875 83.164063 Z M 292.140625 84.945313 C 294.890625 84.945313 294.601563 81.308594 292.296875 81.308594 C 290.652344 81.308594 289.996094 83.285156 290.933594 84.308594 C 291.226563 84.628906 291.558594 84.945313 292.140625 84.945313 Z M 292.140625 84.945313 "/>
<path style=" stroke:none;fill-rule:evenodd;fill:rgb(100%,100%,100%);fill-opacity:1;" d="M 292.296875 83.007813 L 292.0625 83.007813 L 292.0625 82.390625 C 292.339844 82.394531 292.597656 82.421875 292.597656 82.699219 C 292.597656 82.882813 292.46875 83.007813 292.296875 83.007813 Z M 291.605469 84.167969 L 292.0625 84.167969 L 292.0625 83.320313 C 292.394531 83.347656 292.328125 83.359375 292.441406 83.632813 C 292.519531 83.820313 292.578125 83.949219 292.597656 84.167969 L 293.132813 84.167969 C 293.085938 83.949219 293.050781 83.929688 292.953125 83.730469 L 292.753906 83.320313 C 292.890625 83.101563 293.054688 83.046875 293.054688 82.699219 C 293.054688 81.933594 292.269531 82.082031 291.605469 82.082031 Z M 291.605469 84.167969 "/>
<path style=" stroke:none;fill-rule:evenodd;fill:rgb(100%,100%,100%);fill-opacity:1;" d="M 155.296875 96.480469 L 157.386719 96.480469 L 157.386719 92.382813 C 157.808594 92.652344 159.011719 94.324219 159.328125 94.324219 C 159.78125 94.324219 159.65625 94.214844 159.945313 93.910156 C 160.136719 93.707031 160.214844 93.621094 160.394531 93.410156 C 160.589844 93.1875 161.113281 92.601563 161.34375 92.453125 L 161.34375 96.480469 L 163.4375 96.480469 L 163.4375 89.289063 C 161.035156 89.289063 161.941406 89.09375 160.578125 90.496094 L 159.734375 91.40625 C 159.574219 91.605469 159.613281 91.597656 159.402344 91.734375 L 157.933594 90.203125 C 156.890625 89.007813 157.476563 89.289063 155.296875 89.289063 Z M 155.296875 96.480469 "/>
<path style=" stroke:none;fill-rule:evenodd;fill:rgb(100%,100%,100%);fill-opacity:1;" d="M 175.152344 94.828125 L 174.476563 94.828125 C 173.664063 94.828125 172.855469 93.980469 172.855469 93.101563 L 172.855469 92.742188 C 172.855469 90.371094 176.773438 90.039063 176.773438 92.957031 C 176.773438 93.984375 176.007813 94.828125 175.152344 94.828125 Z M 170.898438 92.8125 C 170.898438 95.019531 172.679688 96.554688 174.613281 96.554688 C 175.816406 96.554688 176.820313 96.296875 177.605469 95.496094 C 179.171875 93.886719 179.101563 91.894531 177.570313 90.242188 C 176.933594 89.558594 176.097656 89.238281 174.863281 89.1875 C 173.796875 89.144531 172.695313 89.566406 172.128906 90.164063 C 171.777344 90.539063 171.535156 90.746094 171.300781 91.230469 C 171.09375 91.65625 170.898438 92.164063 170.898438 92.8125 Z M 170.898438 92.8125 "/>
<path style=" stroke:none;fill-rule:evenodd;fill:rgb(100%,100%,100%);fill-opacity:1;" d="M 202.90625 90.871094 C 205.703125 90.871094 205.496094 94.828125 203.183594 94.828125 C 202.308594 94.828125 201.351563 94.683594 201.03125 93.617188 C 200.777344 92.78125 200.929688 92.007813 201.507813 91.421875 C 201.820313 91.113281 202.328125 90.871094 202.90625 90.871094 Z M 198.972656 92.527344 C 198.972656 93.761719 199.109375 94.707031 200.183594 95.578125 C 201.152344 96.363281 201.808594 96.554688 203.113281 96.554688 C 204.253906 96.554688 205.0625 96.140625 205.6875 95.570313 C 208.230469 93.257813 206.628906 89.183594 202.976563 89.183594 C 201.757813 89.1875 201.023438 89.492188 200.28125 90.078125 C 199.746094 90.503906 198.972656 91.558594 198.972656 92.527344 Z M 198.972656 92.527344 "/>
<path style=" stroke:none;fill-rule:evenodd;fill:rgb(100%,100%,100%);fill-opacity:1;" d="M 217.578125 92.09375 L 216.546875 92.09375 L 216.546875 90.796875 L 217.429688 90.796875 C 217.894531 90.796875 218.246094 91.003906 218.246094 91.449219 C 218.246094 91.839844 217.984375 92.09375 217.578125 92.09375 Z M 214.464844 96.480469 L 216.546875 96.480469 L 216.546875 93.671875 C 217.503906 93.671875 217.589844 93.753906 218.148438 94.851563 C 218.433594 95.402344 218.628906 95.957031 218.914063 96.480469 L 221.136719 96.480469 C 221.117188 96.242188 220.46875 94.96875 220.320313 94.683594 L 219.878906 93.820313 C 219.722656 93.535156 219.703125 93.535156 219.464844 93.289063 C 219.363281 93.183594 219.386719 93.238281 219.285156 93.101563 C 220.253906 92.472656 220.71875 91.527344 220.171875 90.511719 C 219.835938 89.882813 218.992188 89.289063 218.097656 89.289063 L 214.464844 89.289063 Z M 214.464844 96.480469 "/>
<path style=" stroke:none;fill-rule:evenodd;fill:rgb(100%,100%,100%);fill-opacity:1;" d="M 282.273438 96.480469 L 287.566406 96.480469 L 287.566406 94.972656 L 284.222656 94.972656 L 284.222656 93.535156 L 287.289063 93.535156 L 287.289063 92.023438 L 284.222656 92.023438 L 284.222656 90.796875 L 287.496094 90.796875 L 287.496094 89.289063 L 282.273438 89.289063 Z M 282.273438 96.480469 "/>
<path style=" stroke:none;fill-rule:evenodd;fill:rgb(100%,100%,100%);fill-opacity:1;" d="M 259.015625 96.554688 C 261.171875 96.554688 261.390625 95.996094 262.074219 95.835938 C 262.074219 93.9375 262.214844 93.910156 261.632813 94.226563 C 260.519531 94.839844 258.816406 95.203125 257.78125 94.304688 C 256.144531 92.886719 257.6875 89.339844 261.933594 91.664063 L 261.933594 89.789063 C 261.648438 89.722656 261.472656 89.570313 261.144531 89.457031 C 260.871094 89.363281 260.464844 89.253906 260.1875 89.226563 C 259.449219 89.152344 258.839844 89.15625 258.136719 89.320313 C 257.539063 89.457031 256.960938 89.726563 256.5625 90.0625 C 253.675781 92.539063 255.535156 96.554688 259.015625 96.554688 Z M 259.015625 96.554688 "/>
<path style=" stroke:none;fill-rule:evenodd;fill:rgb(100%,100%,100%);fill-opacity:1;" d="M 227.8125 92.8125 C 227.8125 93.386719 227.953125 94.011719 228.140625 94.414063 C 229.253906 96.847656 232.503906 97.03125 234.683594 95.835938 L 234.683594 94.035156 C 233.464844 94.703125 231.589844 95.378906 230.398438 94.234375 C 228.867188 92.773438 230.433594 89.371094 234.613281 91.664063 L 234.613281 89.789063 C 234.003906 89.644531 233.972656 89.292969 232.464844 89.214844 C 231.011719 89.136719 229.539063 89.445313 228.566406 90.714844 C 228.214844 91.171875 227.8125 92.007813 227.8125 92.8125 Z M 227.8125 92.8125 "/>
<path style=" stroke:none;fill-rule:evenodd;fill:rgb(100%,100%,100%);fill-opacity:1;" d="M 244.316406 93.246094 L 244.316406 96.480469 L 246.296875 96.480469 L 246.296875 93.316406 C 246.296875 92.914063 248.726563 89.886719 249.117188 89.289063 L 246.71875 89.289063 C 246.492188 89.636719 245.441406 91.054688 245.378906 91.304688 C 245.113281 91.230469 244.867188 90.746094 244.601563 90.367188 C 244.480469 90.195313 244.386719 90.03125 244.257813 89.855469 C 244.101563 89.636719 244.019531 89.53125 243.894531 89.289063 L 241.496094 89.289063 C 241.679688 89.644531 243.261719 91.738281 243.621094 92.226563 C 243.738281 92.382813 244.316406 93.105469 244.316406 93.246094 Z M 244.316406 93.246094 "/>
<path style=" stroke:none;fill-rule:evenodd;fill:rgb(100%,100%,100%);fill-opacity:1;" d="M 185.183594 90.796875 L 187.777344 90.796875 L 187.777344 96.480469 L 189.855469 96.480469 L 189.855469 90.796875 L 192.523438 90.796875 L 192.523438 89.289063 L 185.183594 89.289063 Z M 185.183594 90.796875 "/>
<path style=" stroke:none;fill-rule:evenodd;fill:rgb(100%,100%,100%);fill-opacity:1;" d="M 269.550781 96.480469 L 274.640625 96.480469 C 274.796875 96.480469 274.839844 96.433594 274.839844 96.265625 L 274.839844 94.972656 L 271.425781 94.972656 L 271.425781 89.289063 L 269.550781 89.289063 Z M 269.550781 96.480469 "/>
</g>
</svg>
